inDegrees=no
num_controls=7
num_derivatives=13
num_iterations=135
num_multipliers=7
num_parameters=0
num_slacks=7
num_states=26
objective=0.543117
objective_accelerations=0.064872
objective_balance=0.003416
objective_effort=0.047951
objective_height=0.417714
objective_ligament=0.009164
solver_duration=1436.383597
status=Solve_Succeeded
success=true
DataType=double
version=3
OpenSimVersion=4.5
endheader
time	/jointset/ground_pelvis/pelvis_tilt/value	/jointset/ground_pelvis/pelvis_tx/value	/jointset/ground_pelvis/pelvis_ty/value	/jointset/hip_r/hip_flexion_r/value	/jointset/hip_r/hip_adduction_r/value	/jointset/hip_r/hip_rotation_r/value	/jointset/back/lumbar_extension/value	/jointset/patellofemoral_r/patellar_flexion_r/value	/jointset/knee_r/knee_flexion_r/value	/jointset/knee_r/knee_adduction_r/value	/jointset/knee_r/knee_rotation_r/value	/jointset/ankle_r/ankle_angle_r/value	/jointset/subtalar_r/subtalar_angle_r/value	/jointset/ground_pelvis/pelvis_tilt/speed	/jointset/ground_pelvis/pelvis_tx/speed	/jointset/ground_pelvis/pelvis_ty/speed	/jointset/hip_r/hip_flexion_r/speed	/jointset/hip_r/hip_adduction_r/speed	/jointset/hip_r/hip_rotation_r/speed	/jointset/back/lumbar_extension/speed	/jointset/patellofemoral_r/patellar_flexion_r/speed	/jointset/knee_r/knee_flexion_r/speed	/jointset/knee_r/knee_adduction_r/speed	/jointset/knee_r/knee_rotation_r/speed	/jointset/ankle_r/ankle_angle_r/speed	/jointset/subtalar_r/subtalar_angle_r/speed	/forceset/tau_hip_flexion_r	/forceset/tau_hip_adduction_r	/forceset/tau_hip_rotation_r	/forceset/tau_knee_flexion_r	/forceset/tau_ankle_angle_r	/forceset/tau_subtalar_angle_r	/forceset/tau_lumbar_extension	lambda_cid13_p0	lambda_cid14_p0	lambda_cid14_p1	lambda_cid14_p2	lambda_cid14_p3	lambda_cid14_p4	lambda_cid14_p5	/jointset/ground_pelvis/pelvis_tilt/accel	/jointset/ground_pelvis/pelvis_tx/accel	/jointset/ground_pelvis/pelvis_ty/accel	/jointset/hip_r/hip_flexion_r/accel	/jointset/hip_r/hip_adduction_r/accel	/jointset/hip_r/hip_rotation_r/accel	/jointset/back/lumbar_extension/accel	/jointset/patellofemoral_r/patellar_flexion_r/accel	/jointset/knee_r/knee_flexion_r/accel	/jointset/knee_r/knee_adduction_r/accel	/jointset/knee_r/knee_rotation_r/accel	/jointset/ankle_r/ankle_angle_r/accel	/jointset/subtalar_r/subtalar_angle_r/accel	gamma_cid13_p0	gamma_cid14_p0	gamma_cid14_p1	gamma_cid14_p2	gamma_cid14_p3	gamma_cid14_p4	gamma_cid14_p5
1.5	-0.2096551217965462	0.01178424714583833	0.8133063010528393	0.9740889909480275	-0.2173005168082424	-0.1320304051548508	-0.3067044276812882	0.856292986953982	0.8562929869540055	-0.02763447587924597	0.1745234937649117	0.2754927068573392	0.07760209965700768	0.4872519409581308	0.208161995021837	0.5818864088237868	-2.283009311421197	0.008789509041581286	-0.2172320724244886	0.7015377186980777	-2.318314143190245	-2.318314143190212	0.4682801402828677	-0.0003700396558393288	-0.635645113203596	-0.1872035288179036	-0.131694935176627	-0.01654367362519429	0.01146796993638199	-0.351548877630198	0.0915743507319776	-0.005124212221138656	0.1671472947205626	-21.66285214085379	-10.7267671021166	-1.865882078170673	-1.798599313779385	-3.369570073749042	-641.5708631717634	58.11009916521214	0.4655841601813597	0.6257032762619188	-0.759591274420682	-1.175572628573225	-0.2129932946419378	-0.8656065361285019	1.691816331221653	-1.302154840062976	-1.302154840062975	0.3996453306552332	-0.0420918739137539	-0.7929908515255895	-0.3456123371362298	1.688728872398179e-07	5.661569760662163e-08	-2.089628091060395e-06	4.443074625702921e-07	1.969681368941934e-07	2.278953746297035e-07	-1.220759272780935e-06
1.51	-0.2047599070879792	0.0138968352865937	0.8190859062906621	0.951202807719517	-0.2172239227037187	-0.1342480224405806	-0.2996058804375931	0.8330477455110521	0.8330477455110726	-0.02293191691213748	0.1745200420727853	0.2690973785141063	0.07571232113863377	0.4917048057227176	0.2143183102229582	0.5739049717412603	-2.29390593905671	0.006532563086801799	-0.2262950703971089	0.7180526057331869	-2.330404252405105	-2.330404252405076	0.4722142929875121	-0.0003230777377502105	-0.6433187769618506	-0.190701907979328	-0.1238654324974124	-0.01863696098868447	0.0112826208623364	-0.3471215269781965	0.09418228958772909	-0.006036966607470829	0.1600722694157455	-23.17896390616579	-9.610183565247095	-1.895935407748007	-1.988960425531315	-3.681321326436695	-635.7392178546696	58.0778154780547	0.4222101388538579	0.605053636000347	-0.8368332120163966	-0.9984963034101101	-0.231759511131245	-0.9269862992345139	1.613456243469888	-1.112990578672667	-1.112990578673333	0.3873293508588507	0.02763812009917953	-0.7392123265239271	-0.3448110077916651	1.747814475530259e-07	1.962795824500088e-08	-2.378919418580917e-06	1.38351410882071e-07	2.531876279617615e-07	1.988025627229535e-07	-1.320885422990326e-06
1.52	-0.1998227492309146	0.01606987817815291	0.8247818145002901	0.9282173005201787	-0.2171698409117891	-0.136556337680318	-0.2923457580527837	0.8096914926526785	0.8096914926526955	-0.01819061059588345	0.17451696957893	0.2626283818955811	0.07378898676821644	0.4956405706575651	0.220252945182603	0.5651470031848238	-2.302874105587014	0.004287046522607515	-0.2353716632259584	0.7338527469208695	-2.340516426278971	-2.340516426278947	0.4760296101117487	-0.0002942000025018762	-0.6503787682620457	-0.1939146992265981	-0.116035929818192	-0.02073024835216973	0.01109727178829432	-0.3426941763261945	0.09679022844348155	-0.006949720993796085	0.1529972441109333	-24.67768621209837	-8.499949213506452	-1.926152887481835	-2.180376895218005	-3.987028637680423	-630.0027895081826	58.09594861148324	0.3621641942334745	0.5813672279666334	-0.914897569202658	-0.7898804075315371	-0.2107074165249183	-0.8683255073743541	1.5488671617363	-0.9065677718643635	-0.9065677718643873	0.3758782145737186	-0.04570871048185018	-0.6702563599136188	-0.2884947543054033	1.813952645407482e-07	-1.574442217061452e-08	-2.666413487273787e-06	-1.800820088662332e-07	3.068566734011322e-07	1.699316528547318e-07	-1.39167522517198e-06
1.53	-0.1948488359221595	0.01830113370481362	0.8303863736651865	0.9051517159578362	-0.2171380619019291	-0.1389560462305877	-0.2849312905977266	0.7862440650678328	0.7862440650678487	-0.01341215676667521	0.1745144929329606	0.2560920004096261	0.07183511458720646	0.4990531017584166	0.2259579927224159	0.5556458705900544	-2.309920523327478	0.002066168237253173	-0.244523065635393	0.748914432404198	-2.348625196070421	-2.348625196070371	0.4796894109581559	-0.0002270848098035011	-0.6567843346442538	-0.1968183009721627	-0.1081782766878399	-0.02313169975584717	0.01085352917842247	-0.3386322477981498	0.09977003367374912	-0.007859597088506101	0.1459405430559732	-26.15429687773641	-7.291965027362975	-1.938269558777886	-2.374378075755323	-4.379075402412565	-624.6456147113119	58.22212228325136	0.3174451083395345	0.5591254223984541	-0.9855397919504806	-0.6136857891309058	-0.2285360745471722	-0.9313288841176142	1.465872488658516	-0.7114859299505982	-0.7114859299467782	0.3647874555229091	0.02886965681576726	-0.6086325579755544	-0.2856480501793234	1.887584167451418e-07	-4.940048370609926e-08	-2.951997968462279e-06	-5.117726321783756e-07	3.578158703605433e-07	1.412965139024465e-07	-1.431295157574164e-06
1.54	-0.1898434677943298	0.02058825008795442	0.835892357766668	0.8820253345517246	-0.2171286432829233	-0.1414458250602295	-0.2773699956384305	0.7627258589156425	0.7627258589156516	-0.008596353641829715	0.1745118770434438	0.2494949781037289	0.06985333535564137	0.5019315344724095	0.231425116478619	0.5454319905018278	-2.315033474341026	-0.0001850316483644069	-0.253385719100411	0.7632182477686228	-2.354672139748486	-2.354672139748411	0.4834994692385087	-0.000322048710300048	-0.6625069322505071	-0.1994961093376207	-0.1003206235574805	-0.02553315115951649	0.01060978656850722	-0.3345703192701058	0.1027498389040187	-0.008769473183204229	0.1388838420010189	-27.60519228291344	-6.089969659518645	-1.952497866729643	-2.566826968520071	-4.761841263926897	-619.3766709906497	58.38190475053936	0.2553445168617425	0.5337824712446922	-1.057447067894117	-0.4031870621483676	-0.2167717365775801	-0.8105757184910445	1.397293137955566	-0.4942025491876644	-0.4942025491876657	0.4059297013628564	-0.0781245291207783	-0.5336626047226006	-0.2433360782840856	1.827897040545369e-07	-1.845680202386964e-07	-3.627746320486977e-06	-1.687453951314932e-06	5.192897462023731e-07	9.811443729354713e-10	-1.414910505556178e-06
1.55	-0.1848120988132349	0.0229287393224695	0.8412927476110125	0.8588578343054695	-0.2171407135234143	-0.1440281740590674	-0.2696693507648881	0.7391574365580365	0.7391574365580396	-0.003747117583622367	0.1745104095672155	0.2428444943842847	0.06784762890767403	0.5042577355713768	0.2366223224069875	0.5345401241298142	-2.318141721393807	-0.002223084704827755	-0.2630114424769339	0.7767796268205671	-2.358660156681982	-2.358660156681964	0.4863878702673463	-5.951670019623684e-06	-0.6674749122711402	-0.2015982437115364	-0.09285495497960888	-0.02756756869245276	0.01019154832669788	-0.3301583534294114	0.1049945867759031	-0.009747330723938425	0.1321408377585832	-29.0280605648873	-5.159411408783267	-2.050241450016581	-2.738581068325905	-4.905892397268828	-614.5732375910798	58.38167278390851	0.208535198008162	0.5053221597880271	-1.121018047116336	-0.215977878662985	-0.1977036634866901	-1.027883014965093	1.315895270902456	-0.2983049239818578	-0.298304923990553	0.235297861453108	0.08032905711322218	-0.4609532421619167	-0.188052653080018	1.614603644196955e-07	-4.366944301375251e-07	-4.753031306301194e-06	-3.835559333031737e-06	8.080957520608957e-07	-2.680092734303287e-07	-1.333998832358437e-06
1.56	-0.1797600123628314	0.02531972711749927	0.8465810264665846	0.8356689847183234	-0.2171732406091306	-0.1467046427652173	-0.2618370251044084	0.7155596932993847	0.7155596932993816	0.001132002996434595	0.1745108735086809	0.2361478133563486	0.06582202100874057	0.5060750283341022	0.2415248285815578	0.5230097927473428	-2.319303342519389	-0.004276400693531713	-0.2722096605627439	0.7895544051560555	-2.360536319957534	-2.360536319957574	0.4894763736085394	6.42348306919275e-05	-0.6717463939489029	-0.2034763995308402	-0.08538928640173202	-0.02960198622538667	0.009773310084901381	-0.325746387588716	0.1072393346477877	-0.01072518826466992	0.1253978335161521	-30.42182224993348	-4.234903634004098	-2.154558566608864	-2.902982950529536	-5.023485158002458	-609.8584061698689	58.31613444907916	0.1535628496133514	0.4748425204850789	-1.185140069985691	-0.01386187670855078	-0.2198243230257142	-0.7250746603484439	1.239972994664339	-0.07183181759914242	-0.07183181759914269	0.4459501638339815	-0.1273066370345272	-0.3943629361484985	-0.1985403673617099	1.515426156338995e-07	-5.887886844952412e-07	-5.413672114710888e-06	-5.151477153362213e-06	9.821846377149152e-07	-4.566176416051178e-07	-1.188076353355993e-06
1.57	-0.1746925632507269	0.02775823794267304	0.8517509377071497	0.8124785289816535	-0.2172259632286372	-0.1494723923486788	-0.2538809270223498	0.6919537657391186	0.6919537657391215	0.006041627742301218	0.1745117503551105	0.2294120724700152	0.06377931782341055	0.5073161420841926	0.2461241134364888	0.5108822610247017	-2.318457040791754	-0.006248181248913983	-0.2813403393038031	0.8015146691732569	-2.360306990611678	-2.360306990611746	0.4924215115878666	0.0001255294368774399	-0.6752814642438981	-0.2050004751352502	-0.07752859282197447	-0.03184269260488257	0.009068239688579499	-0.3223506406271699	0.1106589581576757	-0.01162633013193897	0.1184230145651743	-31.78595897852674	-2.959966475618086	-2.164980726140068	-3.081468835540636	-5.421556893911946	-605.7100257256297	58.51201881835932	0.09454433460903737	0.4446941252585728	-1.240207972622928	0.1834245302813647	-0.1842753020340775	-1.007364077394612	1.151471792869918	0.1216138547791432	0.1216138547750923	0.2136249917871627	0.07395845762162914	-0.3148423134917142	-0.1213092456743531	1.5588935540941e-07	-6.158427444265674e-07	-5.493507701364936e-06	-5.427160521959786e-06	1.012877123113308e-06	-5.447484477443142e-07	-9.608903670976721e-07
1.58	-0.1696156712617413	0.03024118614784839	0.8567968439806443	0.789306445928817	-0.2172980877297461	-0.152331508638832	-0.2458097425625947	0.6683603911811355	0.6683603911811369	0.0109796697433222	0.174513462337217	0.2226446282332687	0.0617229802642977	0.5079636037103691	0.2504123045818742	0.4982087993332725	-2.315628805752847	-0.008156777013883015	-0.2904830019012589	0.8125716806953343	-2.358025719501773	-2.358025719501868	0.4951598246393951	0.0002312619701251647	-0.6780870640315603	-0.2062032742874082	-0.06966789924220883	-0.03408339898436989	0.008363169292197237	-0.3189548936656233	0.1140785816675662	-0.01252747199919524	0.1114481956142027	-33.10515470093392	-1.695001100080266	-2.184704397594572	-3.249835571486543	-5.775401345900057	-601.7029484551464	58.62628061201398	0.034832424830557	0.4126237785759831	-1.294326063743305	0.3825247855457924	-0.2071873649430588	-0.7274714316277452	1.059322495639527	0.3385565352106808	0.338556535210683	0.4045851782742743	-0.1184190516221005	-0.2484688346818744	-0.1342850769113162	1.463553744983154e-07	-6.15141156604205e-07	-5.250014821995456e-06	-5.437837509413259e-06	9.895480157071139e-07	-5.993719362471056e-07	-6.714633895604744e-07
